<?xml version="1.0" encoding="UTF-8" standalone="no"?>
<svg
   xmlns:dc="http://purl.org/dc/elements/1.1/"
   xmlns:cc="http://creativecommons.org/ns#"
   xmlns:rdf="http://www.w3.org/1999/02/22-rdf-syntax-ns#"
   xmlns:svg="http://www.w3.org/2000/svg"
   xmlns="http://www.w3.org/2000/svg"
   viewBox="0 0 345.43866 274.51733"
   height="274.51733"
   width="345.43866"
   xml:space="preserve"
   id="svg2"
   version="1.1"><metadata
     id="metadata8"><rdf:RDF><cc:Work
         rdf:about=""><dc:format>image/svg+xml</dc:format><dc:type
           rdf:resource="http://purl.org/dc/dcmitype/StillImage" /></cc:Work></rdf:RDF></metadata><defs
     id="defs6"><clipPath
       id="clipPath20"
       clipPathUnits="userSpaceOnUse"><path
         id="path18"
         d="M 0,0 H 259.079 V 205.889 H 0 Z" /></clipPath><clipPath
       id="clipPath36"
       clipPathUnits="userSpaceOnUse"><path
         id="path34"
         d="M 0,205.888 H 259.079 V 0 H 0 Z" /></clipPath><clipPath
       id="clipPath48"
       clipPathUnits="userSpaceOnUse"><path
         id="path46"
         d="M 0,0 H 259.079 V 205.889 H 0 Z" /></clipPath></defs><g
     transform="matrix(1.3333333,0,0,-1.3333333,0,274.51733)"
     id="g10"><path
       id="path12"
       style="fill:#162041;fill-opacity:1;fill-rule:nonzero;stroke:none"
       d="M 0,0 H 259.079 V 205.889 H 0 Z" /><g
       id="g14"><g
         clip-path="url(#clipPath20)"
         id="g16"><g
           transform="translate(126.854,89.8877)"
           id="g22"><path
             id="path24"
             style="fill:#e1ceb2;fill-opacity:1;fill-rule:nonzero;stroke:none"
             d="m 0,0 c -0.458,-0.123 -1.337,1.734 -1.708,2.518 -0.321,0.677 -0.76,1.62 -1.079,2.965 -0.435,1.842 -0.374,3.299 -0.359,3.596 0.099,1.996 0.684,3.448 1.079,4.404 0.328,0.797 1.305,2.973 3.415,5.124 0.815,0.83 1.633,1.434 3.236,2.607 2.265,1.657 4.764,3.236 4.764,3.236 1.028,0.673 1.902,1.182 2.517,1.528 2.35,1.317 4.854,2.427 4.854,2.427 l 0.032,0.013 c 0.052,0.021 2.531,1.06 4.297,1.781 0.436,0.177 1.334,0.543 1.334,0.543 0.006,0.002 6.043,2.073 10.683,3.309 4.765,1.268 4.562,0.991 8.014,1.994 3.009,0.875 5.147,1.664 8.898,3.057 3.158,1.171 5.808,2.155 9.349,3.685 5.895,2.547 10.134,4.826 11.506,5.573 0,0 2.214,1.204 7.281,4.314 0.881,0.541 1.438,0.899 2.112,1.416 1.185,0.91 1.955,1.573 1.955,1.573 0.895,0.771 0.987,0.922 1.146,0.877 C 84,56.343 83.748,53.158 83.258,50.787 83.083,49.934 82.776,48.489 81.977,46.652 81.519,45.597 80.071,42.424 76.764,39.371 74.563,37.339 72.451,36.251 68.315,34.158 67.089,33.537 63.528,31.771 57.618,29.573 56.53,29.168 54.035,28.256 48.18,26.427 38.686,23.462 38.26,23.681 31.91,21.573 29.723,20.848 26.407,19.591 19.775,17.079 17.951,16.389 15.292,15.37 12.045,13.663 9.826,12.496 8.147,11.436 6.472,10.067 5.344,9.147 4.467,8.29 3.85,7.647 3.242,7.014 2.834,6.554 2.652,6.337 2.422,6.065 2.189,5.789 1.903,5.397 1.486,4.827 1.099,4.29 0.795,3.52 0.686,3.24 0.627,3.029 0.564,2.81 0.063,1.057 0.294,0.079 0,0" /></g><g
           transform="translate(122.4946,106.7871)"
           id="g26"><path
             id="path28"
             style="fill:#e1ceb2;fill-opacity:1;fill-rule:nonzero;stroke:none"
             d="m 0,0 c -0.467,0.133 0.015,3.285 0.404,5.258 0.266,1.345 0.737,3.661 1.955,6.539 1.308,3.09 2.854,5.27 3.911,6.742 0.613,0.855 1.519,2.109 2.898,3.618 1.808,1.977 3.354,3.217 5.529,4.944 0.431,0.343 2.31,1.829 5.055,3.708 1.79,1.224 3.956,2.707 6.855,4.292 2.555,1.397 4.423,2.186 7.865,3.64 0.797,0.337 3.901,1.64 8.539,3.326 5.254,1.91 6.005,1.976 9.708,3.371 3.233,1.218 5.435,2.248 8.697,3.775 5.351,2.505 9.209,4.311 14.022,7.349 4.921,3.105 8.313,5.934 10.247,7.55 0,0 4.065,3.398 6.765,6.405 1.216,1.355 1.824,2.032 2.337,2.764 0.748,1.068 0.893,1.503 1.145,1.483 0.784,-0.064 1.381,-4.445 1.147,-8.427 C 96.672,59.433 93.809,54.354 92.629,52.314 89.84,47.492 86.606,44.547 84.742,42.876 81.599,40.061 78.844,38.425 76.854,37.258 73.405,35.236 68.133,32.613 61.094,30.788 56.4,29.549 52.705,28.425 50.101,27.591 47.846,26.869 45.337,26.021 44.944,25.887 41.653,24.773 41.449,24.652 38.832,23.775 34.857,22.443 34.603,22.479 32.089,21.573 30.784,21.102 28.774,20.374 26.359,19.281 23.567,18.017 21.714,16.936 18.336,14.966 15.615,13.378 13.618,12.207 11.056,10.382 8.771,8.754 7.355,7.546 6.741,7.011 5.691,6.095 4.96,5.381 3.73,4.18 2.389,2.869 1.709,2.198 1.168,1.483 0.409,0.479 0.198,-0.057 0,0" /></g></g></g><g
       id="g30"><g
         clip-path="url(#clipPath36)"
         id="g32"><g
           transform="translate(55.4209,38.416)"
           id="g38"><path
             id="path40"
             style="fill:#e1ceb2;fill-opacity:1;fill-rule:nonzero;stroke:none"
             d="m 0,0 c 0.96,2.85 1.441,6.578 1.441,11.188 0,11.342 -1.13,22.272 -3.389,32.79 -2.259,10.517 -5.167,18.417 -8.724,23.697 3.628,0.695 6.26,1.043 7.897,1.043 2.348,0 4.064,-0.864 5.15,-2.588 1.084,-1.725 2.463,-5.807 4.135,-12.245 2.597,-9.889 4.483,-23.438 5.657,-40.645 11.881,19.219 21.576,34.289 29.083,45.212 0.461,0.056 0.8,0.098 1.013,0.125 1.494,0.252 2.508,0.378 3.042,0.378 2.952,0 4.429,-1.104 4.429,-3.31 0,-0.643 -0.089,-1.44 -0.267,-2.389 -1.423,-9.078 -2.134,-15.782 -2.134,-20.112 l -0.16,-4.777 -0.053,-2.849 c 0,-10.476 2.027,-15.713 6.083,-15.713 4.624,0 9.356,3.798 14.194,11.391 5.372,8.489 8.058,18.401 8.058,29.738 0,4.885 -1.547,9.437 -4.642,13.653 2.561,0.5 4.891,0.751 6.99,0.751 3.272,0 5.585,-0.72 6.937,-2.157 1.352,-1.438 2.028,-3.93 2.028,-7.476 0,-11.476 -4.216,-23.176 -12.647,-35.098 C 70.243,15.134 65.876,10.624 61.021,7.078 56.165,3.532 51.922,1.76 48.293,1.76 c -4.055,0 -6.91,1.773 -8.564,5.321 -1.655,3.547 -2.482,9.68 -2.482,18.395 0,3.492 0.231,8.855 0.694,16.089 C 29.367,29.877 22.821,20.23 18.304,12.625 L 16.538,9.563 C 14.004,5.48 11.998,3.006 10.517,2.139 9.036,1.272 5.53,0.559 0,0" /></g></g></g><g
       id="g42"><g
         clip-path="url(#clipPath48)"
         id="g44"><g
           transform="translate(129.4609,94.292)"
           id="g50"><path
             id="path52"
             style="fill:#162041;fill-opacity:1;fill-rule:nonzero;stroke:none"
             d="M 0,0 C -0.735,0.198 -1.818,-2.302 -2.022,-2.202 -2.27,-2.08 -1.159,1.796 1.566,4.549 2.152,5.141 2.781,5.648 2.895,5.74 4.176,6.763 5.387,7.393 6.416,7.91 8.379,8.898 11.693,10.566 12.674,9.528 12.913,9.275 13.284,8.574 12.314,6.36 11.612,6.05 10.66,5.596 9.575,4.966 8.405,4.287 6.475,3.171 4.854,1.528 2.215,-1.145 1.589,-4.001 0.989,-3.819 0.261,-3.601 0.83,-0.223 0,0" /></g><g
           transform="translate(130,88.7197)"
           id="g54"><path
             id="path56"
             style="fill:#e1ceb2;fill-opacity:1;fill-rule:nonzero;stroke:none"
             d="M 0,0 C 0.043,0.645 0.21,1.081 0.45,1.753 0.599,2.171 1.173,3.7 2.674,5.527 3.21,6.18 3.965,6.994 5.236,8.022 c 0.993,0.802 2.838,2.173 6.539,3.912 2.321,1.087 4.079,1.713 6.472,2.56 3.524,1.245 6.131,2.012 7.686,2.427 0.755,0.202 1.583,0.422 2.715,0.672 1.938,0.428 2.813,0.511 4.667,0.867 1.637,0.315 2.828,0.61 3.944,0.888 0.599,0.149 3.833,0.962 7.859,2.378 0.805,0.284 3.182,1.133 5.324,2.391 1.726,1.014 2.589,1.521 3.064,2.175 0.179,0.247 0.44,0.658 0.674,0.606 0.358,-0.078 0.424,-1.196 0.404,-1.82 -0.043,-1.384 -0.585,-2.573 -1.415,-3.842 -0.828,-1.266 -2.245,-2.998 -4.787,-5.023 -2.153,-1.715 -4.761,-3.34 -4.761,-3.34 -0.001,0 -4.433,-2.759 -7.711,-4.514 C 34.462,7.584 33.258,6.989 32.773,6.752 32.374,6.557 32.036,6.396 31.789,6.277 30.409,5.625 29.261,5.124 28.449,4.78 26.751,4.062 24.651,3.235 24.651,3.235 21.81,2.229 20.274,1.685 20.274,1.685 17.882,0.567 16.316,-0.158 16.038,-0.278 15.997,-0.297 15.816,-0.373 15.581,-0.495 15.55,-0.512 15.428,-0.575 15.281,-0.66 14.823,-0.925 14.463,-1.204 14.373,-1.273 14.132,-1.464 13.979,-1.627 13.751,-1.814 13.163,-2.303 12.709,-2.754 12.382,-3.102 11.905,-3.608 11.576,-3.924 11.304,-4.45 11.013,-5.01 10.73,-5.865 10.73,-5.865 L 4.528,-6 0.551,-6.034 c 0.018,0.494 0.036,0.987 0.054,1.481 -0.035,0.367 -0.1,0.955 -0.216,1.676 C 0.15,-1.396 -0.059,-0.879 0,0" /></g></g></g></g></svg>